<?xml version="1.0" encoding="UTF-8" standalone="no"?>
<!-- Created with Inkscape (http://www.inkscape.org/) -->

<svg
   width="100mm"
   height="100mm"
   viewBox="0 0 100 100"
   version="1.1"
   id="svg1"
   xml:space="preserve"
   inkscape:version="1.4 (86a8ad7, 2024-10-11)"
   sodipodi:docname="GitHub_Invertocat_86563e.svg"
   xmlns:inkscape="http://www.inkscape.org/namespaces/inkscape"
   xmlns:sodipodi="http://sodipodi.sourceforge.net/DTD/sodipodi-0.dtd"
   xmlns="http://www.w3.org/2000/svg"
   xmlns:svg="http://www.w3.org/2000/svg"><sodipodi:namedview
     id="namedview1"
     pagecolor="#505050"
     bordercolor="#eeeeee"
     borderopacity="1"
     inkscape:showpageshadow="0"
     inkscape:pageopacity="0"
     inkscape:pagecheckerboard="0"
     inkscape:deskcolor="#505050"
     inkscape:document-units="mm"
     inkscape:zoom="1.0467522"
     inkscape:cx="396.94208"
     inkscape:cy="331.0239"
     inkscape:window-width="1920"
     inkscape:window-height="1017"
     inkscape:window-x="4472"
     inkscape:window-y="359"
     inkscape:window-maximized="1"
     inkscape:current-layer="layer1" /><defs
     id="defs1" /><g
     inkscape:label="Layer 1"
     inkscape:groupmode="layer"
     id="layer1"><path
       class="st0"
       d="m 111.24704,65.698612 c -27.523522,0 -49.664228,22.343823 -49.664228,49.968948 0,22.14072 14.218816,40.82829 33.921986,47.42987 2.43751,0.50781 3.35159,-1.11718 3.35159,-2.43751 0,-1.11718 -0.10172,-5.17969 -0.10172,-9.24223 -13.81254,2.94536 -16.65633,-5.9922 -16.65633,-5.9922 -2.23436,-5.78907 -5.48438,-7.31254 -5.48438,-7.31254 -4.46874,-3.04688 0.30478,-3.04688 0.30478,-3.04688 4.97658,0.30478 7.61719,5.17973 7.61719,5.17973 4.46878,7.6172 11.57817,5.48439 14.42195,4.16407 0.40624,-3.25003 1.726572,-5.4844 3.148422,-6.70316 -10.968792,-1.11718 -22.546952,-5.48439 -22.546952,-24.6798 0,-5.4844 1.92969,-9.95314 5.07814,-13.406304 -0.5078,-1.218755 -2.23437,-6.398444 0.50781,-13.203165 0,0 4.16408,-1.320324 13.60945,5.179727 3.960932,-1.117224 8.226572,-1.625032 12.390682,-1.625032 4.16407,0 8.42972,0.609378 12.39065,1.625032 9.44537,-6.500051 13.60944,-5.179727 13.60944,-5.179727 2.74218,6.90629 1.01562,11.98441 0.50781,13.203165 3.25003,3.453164 5.07816,7.921904 5.07816,13.406304 0,19.19541 -11.57817,23.46105 -22.64853,24.6798 1.82813,1.52343 3.35155,4.57032 3.35155,9.24224 0,6.70315 -0.10172,12.08598 -0.10172,13.71097 0,1.32033 0.91408,2.94532 3.35159,2.43751 19.80479,-6.60158 34.02357,-25.28915 34.02357,-47.42987 0.10172,-27.625125 -22.14069,-49.968948 -49.46114,-49.968948 z"
       id="path1"
       style="display:none;stroke-width:1.01563" /><path
       style="fill:#86563e;stroke-width:0.252766;fill-opacity:1"
       d="M 33.447768,97.972265 C 29.192799,96.459648 23.675435,93.348365 19.886261,90.324825 17.843463,88.694794 13.960203,84.851131 12.264565,82.780846 4.3150342,73.074897 0.18491221,59.864656 1.2217614,47.460334 2.0579611,37.456486 5.5424892,28.38881 11.59206,20.474038 13.335987,18.192422 17.296982,14.189557 19.715742,12.264483 30.190977,3.927306 43.4575,0.14151279 56.500736,1.7673562 79.193077,4.5959636 96.732552,22.347346 99.577786,45.364855 c 0.340635,2.755675 0.340119,8.891249 -0.0011,11.640494 -1.818892,14.660293 -9.768817,27.650797 -21.822656,35.659123 -4.856639,3.226652 -11.648731,6.274089 -13.146035,5.898293 -0.335719,-0.08426 -0.874934,-0.43479 -1.198258,-0.778952 l -0.587864,-0.625753 0.0719,-7.883715 c 0.05477,-6.006063 -0.01463,-8.368215 -0.291391,-9.918004 -0.360429,-2.018287 -1.528845,-4.767509 -2.2972,-5.405186 -0.663715,-0.550833 -0.469911,-0.696066 1.155562,-0.865963 2.148364,-0.224549 6.041274,-1.244036 8.25945,-2.163008 3.75711,-1.556547 7.127333,-4.408694 9.117246,-7.71574 1.979276,-3.289368 3.308778,-8.933568 3.307974,-14.043469 -7.94e-4,-5.533009 -1.369404,-9.808951 -4.190511,-13.093157 l -0.781568,-0.909871 0.38295,-1.150188 c 0.266517,-0.800479 0.382794,-2.187694 0.382431,-4.562528 -5.29e-4,-2.889737 -0.09461,-3.722032 -0.614891,-5.434468 l -0.614374,-2.022128 -2.146064,0.01762 c -1.83088,0.01503 -2.461607,0.144513 -4.294574,0.881655 -1.181682,0.475221 -3.34283,1.581753 -4.802552,2.458958 l -2.654044,1.594919 -2.527659,-0.503814 c -6.934277,-1.382151 -14.221365,-1.336224 -20.4056,0.128607 l -1.700956,0.402897 -1.595898,-1.007901 C 32.440052,23.347632 28.571724,21.864257 25.891961,21.864257 H 24.28576 l -0.509328,1.649018 c -1.063495,3.443192 -1.175224,7.694977 -0.281686,10.719408 0.23695,0.802021 0.179909,0.96878 -0.754899,2.206922 -1.395021,1.847693 -2.691683,4.518152 -3.324526,6.846823 -0.633889,2.332514 -0.744768,8.001379 -0.221232,11.31102 1.658594,10.485173 8.112411,16.675586 19.099871,18.320337 2.859241,0.428009 2.781726,0.377052 2.044343,1.343813 -0.831921,1.090706 -1.58501,2.812402 -1.926336,4.403942 l -0.273044,1.273167 -1.66197,0.545587 c -1.701226,0.558472 -4.551095,0.739712 -6.026888,0.383283 -2.352551,-0.568179 -4.56324,-2.285941 -6.267352,-4.869894 -2.062599,-3.127526 -4.190757,-4.771871 -6.938595,-5.361175 -0.913183,-0.195845 -1.468858,-0.179578 -2.217142,0.0649 -1.433975,0.468502 -1.456206,1.173625 -0.07121,2.25861 0.595116,0.466204 1.854552,1.610249 2.798746,2.54232 1.440307,1.421818 1.94337,2.166104 3.124438,4.62262 2.135897,4.442476 4.493483,6.412415 8.639001,7.218535 1.617546,0.314542 7.083824,0.21972 7.954515,-0.137981 0.408077,-0.167648 0.447016,0.109186 0.502671,3.573616 0.09926,6.178574 0.08193,6.383274 -0.596836,7.051032 -0.938776,0.92355 -1.659173,0.949592 -3.930616,0.142111 z"
       id="path2" /></g><style
     type="text/css"
     id="style1">
	.st0{fill:#FFFFFF;}
</style></svg>
