<?xml version="1.0" encoding="UTF-8" standalone="no"?>
<!-- Created with Inkscape (http://www.inkscape.org/) -->

<svg
   width="150mm"
   height="150mm"
   viewBox="0 0 150 150"
   version="1.1"
   id="svg1"
   xml:space="preserve"
   xmlns="http://www.w3.org/2000/svg"
   xmlns:svg="http://www.w3.org/2000/svg"><defs
     id="defs1" /><g
     id="layer2"
     transform="translate(-15,-85.725)"><path
       style="fill:#86563e;fill-opacity:1;fill-rule:nonzero;stroke-width:0.229481"
       d="m 113.87246,87.106982 c 4.92534,1.951893 9.08416,6.39592 11.86206,11.232119 2.69202,4.686679 3.56502,10.501469 3.95402,16.011749 0.41178,5.83284 0.50146,12.13676 -1.75734,17.44563 -2.37159,5.57393 -6.39418,11.11895 -11.64239,13.38295 -4.7045,2.02944 -10.62847,1.50185 -15.15708,-0.95593 -3.951481,-2.14456 -7.017802,-6.49438 -8.567048,-10.99314 -1.889859,-5.48782 -0.180809,-27.07885 1.334562,-31.77818 4.174811,-11.368497 8.450136,-18.986023 19.973216,-14.345198 z"
       id="path8-7" /><path
       style="fill:#86563e;fill-opacity:1;fill-rule:nonzero;stroke-width:0.229481"
       d="m 150.46775,125.03545 c 5.81005,-0.84279 10.24314,5.84672 12.45361,11.18695 3.30917,7.99461 2.39578,18.2532 -0.83025,26.28793 -3.12109,7.77336 -9.10843,15.59063 -16.6048,17.92359 -5.18523,1.61372 -11.53287,-0.29029 -15.77457,-3.91401 -3.8936,-3.32632 -6.04886,-9.1047 -6.64193,-14.45178 -0.74798,-6.74372 1.50215,-13.72023 4.15121,-19.8712 2.51282,-5.83468 5.66886,-12.12412 10.79312,-15.35502 3.6234,-2.28459 12.45361,-1.80646 12.45361,-1.80646 z"
       id="path7-4" /><path
       style="fill:#86563e;fill-opacity:1;fill-rule:nonzero;stroke-width:0.229481"
       d="m 89.721649,145.9051 c 13.277471,0 19.023651,20.18027 29.058411,29.63921 5.35707,5.04966 11.81473,8.76774 16.60482,14.45179 3.37157,4.0008 7.4509,8.20041 8.3024,13.54854 0.97374,6.11583 -1.27756,12.70264 -4.1512,18.06472 -2.88481,5.38292 -6.90559,11.3315 -12.45361,12.87899 -12.47674,3.4801 -24.48093,-10.84035 -37.360821,-10.73044 -12.935044,0.11037 -24.847217,14.97991 -37.360825,11.41536 -5.682463,-1.61865 -9.560935,-8.00203 -12.453608,-13.56391 -2.809578,-5.40211 -5.124936,-11.94889 -4.151202,-18.06472 0.851505,-5.34813 4.930829,-9.54774 8.302405,-13.54854 4.790083,-5.68405 11.247751,-9.40213 16.604811,-14.45179 10.034769,-9.45894 15.780944,-29.63921 29.058419,-29.63921 z"
       id="path5" /><path
       style="fill:#86563e;fill-opacity:1;fill-rule:nonzero;stroke-width:0.229481"
       d="m 29.532251,125.03545 c -5.810052,-0.84279 -10.243148,5.84672 -12.453609,11.18695 -3.309172,7.99461 -2.395787,18.2532 0.830241,26.28793 3.121084,7.77336 9.108434,15.59063 16.604811,17.92359 5.185225,1.61372 11.532864,-0.29029 15.77457,-3.91401 3.893594,-3.32632 6.048857,-9.1047 6.641924,-14.45178 0.747976,-6.74372 -1.502156,-13.72023 -4.151203,-19.8712 -2.51283,-5.83468 -5.668868,-12.12412 -10.793126,-15.35502 -3.623398,-2.28459 -12.453608,-1.80646 -12.453608,-1.80646 z"
       id="path7" /><path
       style="fill:#86563e;fill-opacity:1;fill-rule:nonzero;stroke-width:0.229481"
       d="m 65.371385,87.397868 c -4.92534,1.951894 -9.08416,6.395921 -11.862062,11.232119 -2.692016,4.686673 -3.565014,10.501463 -3.954021,16.011743 -0.411779,5.83285 -0.501457,12.13677 1.757343,17.44563 2.371583,5.57394 6.39418,11.11895 11.642394,13.38296 4.704496,2.02944 10.628462,1.50184 15.157078,-0.95594 3.951477,-2.14455 7.017796,-6.49437 8.567048,-10.99314 1.88986,-5.48782 0.18081,-27.07884 -1.334562,-31.77818 C 81.169784,90.37457 76.894465,82.757043 65.371385,87.397868 Z"
       id="path8" /></g></svg>
